<svg width="240" height="240" viewBox="0 0 240 240" fill="none" xmlns="http://www.w3.org/2000/svg">
<mask id="path-1-inside-1" fill="white">
<path fill-rule="evenodd" clip-rule="evenodd" d="M220 20H20V220H220V20ZM119.498 25.4951L24.9984 120.002L119.505 214.502L214.005 119.995L119.498 25.4951Z"/>
</mask>
<path fill-rule="evenodd" clip-rule="evenodd" d="M220 20H20V220H220V20ZM119.498 25.4951L24.9984 120.002L119.505 214.502L214.005 119.995L119.498 25.4951Z" fill="white"/>
<path d="M20 20V15H15V20H20ZM220 20H225V15H220V20ZM20 220H15V225H20V220ZM220 220V225H225V220H220ZM24.9984 120.002L21.4627 116.466L17.9273 120.002L21.463 123.537L24.9984 120.002ZM119.498 25.4951L123.034 21.9594L119.498 18.424L115.963 21.9596L119.498 25.4951ZM119.505 214.502L115.97 218.037L119.505 221.573L123.041 218.037L119.505 214.502ZM214.005 119.995L217.541 123.53L221.076 119.995L217.54 116.459L214.005 119.995ZM20 25H220V15H20V25ZM25 220V20H15V220H25ZM220 215H20V225H220V215ZM215 20V220H225V20H215ZM28.5341 123.537L123.034 29.0305L115.963 21.9596L21.4627 116.466L28.5341 123.537ZM123.04 210.966L28.5338 116.466L21.463 123.537L115.97 218.037L123.04 210.966ZM210.469 116.46L115.969 210.966L123.041 218.037L217.541 123.53L210.469 116.46ZM115.963 29.0307L210.47 123.531L217.54 116.459L123.034 21.9594L115.963 29.0307Z" fill="white" mask="url(#path-1-inside-1)"/>
<rect x="75" y="74" width="92" height="92" fill="white"/>
</svg>
